<svg width="16" height="16" viewBox="0 0 16 16" fill="none" xmlns="http://www.w3.org/2000/svg">
<path fill-rule="evenodd" clip-rule="evenodd" d="M11.6159 2.43603C11.6159 1.36679 12.4854 0.5 13.558 0.5C14.6305 0.5 15.5 1.36679 15.5 2.43603C15.5 3.50527 14.6305 4.37206 13.558 4.37206C12.4854 4.37206 11.6159 3.50527 11.6159 2.43603ZM14.4099 2.43603C14.4099 1.96699 14.0285 1.58676 13.558 1.58676C13.0875 1.58676 12.7061 1.96699 12.7061 2.43603C12.7061 2.90507 13.0875 3.2853 13.558 3.2853C14.0285 3.2853 14.4099 2.90507 14.4099 2.43603ZM10.6458 6.15517C10.8302 5.91794 11.1725 5.87464 11.4105 6.05844C11.6268 6.22554 11.6824 6.52281 11.5522 6.75371L11.5075 6.82079L9.37881 9.55967C9.21041 9.77635 8.9104 9.83109 8.67855 9.69932L8.61124 9.65417L6.5626 8.05009L4.72336 10.4336C4.55648 10.6498 4.25848 10.7062 4.02642 10.5772L3.95898 10.5329C3.74209 10.3665 3.68551 10.0695 3.81494 9.83812L3.85937 9.77088L6.03466 6.95243C6.20273 6.73466 6.50347 6.67923 6.73589 6.81122L6.80336 6.85647L8.85261 8.46161L10.6458 6.15517ZM10.4177 1.6535C10.4177 1.35339 10.1736 1.11011 9.87261 1.11011H4.59072L4.42049 1.11295C2.0564 1.19212 0.5 2.92297 0.5 5.38049V11.2363L0.502607 11.4111C0.57547 13.8408 2.17017 15.5 4.59072 15.5H10.8438L11.0141 15.4972C13.3791 15.4182 14.9346 13.6926 14.9346 11.2363V6.1365L14.9296 6.06277C14.8935 5.79754 14.6654 5.59312 14.3895 5.59312C14.0885 5.59312 13.8444 5.8364 13.8444 6.1365V11.2363L13.8414 11.4049C13.7755 13.2401 12.6294 14.4132 10.8438 14.4132H4.59072L4.4288 14.41C2.66827 14.34 1.59014 13.1218 1.59014 11.2363V5.38049L1.59314 5.21168C1.65911 3.37458 2.80675 2.19688 4.59072 2.19688H9.87261L9.94657 2.19192C10.2126 2.15594 10.4177 1.92859 10.4177 1.6535Z" fill="#A6ABB2"/>
</svg>
