<svg width="16" height="16" viewBox="0 0 16 16" fill="none" xmlns="http://www.w3.org/2000/svg">
<path fill-rule="evenodd" clip-rule="evenodd" d="M3.85283 0.501295L3.8728 0.502583C4.26571 0.53515 4.60697 0.730412 4.9185 1.03479C5.51051 1.61299 6.78175 3.30025 6.87773 3.75943C6.98394 4.27168 6.87037 4.60439 6.53181 5.19293L6.44974 5.33798C6.29438 5.62174 6.27063 5.73891 6.31873 5.87307C7.05796 7.68224 8.31941 8.94351 10.1079 9.67398C10.2773 9.73533 10.4052 9.70017 10.7631 9.49483L10.9499 9.38917C11.4531 9.11316 11.7721 9.02593 12.2424 9.12389C12.7 9.21976 14.3882 10.4918 14.9655 11.0831C15.2695 11.3943 15.4652 11.7362 15.4992 12.155C15.5352 13.1729 14.2931 14.6061 13.5354 15.0371C12.6737 15.6534 11.5803 15.6432 10.3542 15.0726C7.14807 13.7384 2.24375 8.86545 0.936787 5.66324L0.85855 5.48412C0.362279 4.29799 0.373032 3.27324 0.941736 2.50069C1.46066 1.64132 2.85976 0.455366 3.85283 0.501295ZM3.79221 1.59798L3.7261 1.60137C3.2164 1.66908 2.19427 2.54906 1.85388 3.10876L1.79507 3.19626C1.50184 3.67403 1.53582 4.33015 1.94408 5.22853L2.02211 5.41116C3.33875 8.36616 7.89749 12.8616 10.7963 14.0684L10.9559 14.1394C11.7946 14.4949 12.4295 14.4791 12.9435 14.1146L12.9815 14.0902C13.1406 13.9796 13.5074 13.6464 13.7899 13.3204C14.1867 12.8625 14.4114 12.443 14.4042 12.2196C14.3963 12.1241 14.3225 11.9953 14.1805 11.8499C13.7514 11.4104 12.1905 10.2343 12.018 10.1982C11.8549 10.1642 11.721 10.2099 11.3549 10.4205L11.1707 10.5239C10.6313 10.8148 10.2511 10.893 9.71382 10.698C7.63183 9.8482 6.15374 8.37033 5.29496 6.26736C5.09155 5.70508 5.20105 5.30726 5.55478 4.69073L5.63906 4.54244C5.79976 4.25229 5.83377 4.12919 5.80349 3.98315C5.76724 3.80971 4.59192 2.24976 4.15181 1.81991C4.00607 1.67752 3.87802 1.60425 3.78218 1.59631L3.79221 1.59798Z" fill="#A6ABB2"/>
</svg>
