<svg width="17" height="16" viewBox="0 0 17 16" fill="none" xmlns="http://www.w3.org/2000/svg">
<path fill-rule="evenodd" clip-rule="evenodd" d="M5.20969 0.5H2.85573C1.58112 0.5 0.549805 1.50683 0.549805 2.74664V5.04472C0.549805 6.28402 1.58134 7.29136 2.85573 7.29136H5.20969C6.48408 7.29136 7.51562 6.28402 7.51562 5.04472V2.74664C7.51562 1.50683 6.4843 0.5 5.20969 0.5ZM2.85574 1.54651H5.2097C5.88504 1.54651 6.43436 2.08279 6.43436 2.74664V5.04472C6.43436 5.70813 5.88475 6.24485 5.2097 6.24485H2.85574C2.18069 6.24485 1.63108 5.70813 1.63108 5.04472V2.74664C1.63108 2.08279 2.1804 1.54651 2.85574 1.54651ZM13.7428 0.5H11.3881C10.1134 0.5 9.08213 1.50683 9.08213 2.74664V5.04472C9.08213 6.28402 10.1137 7.29136 11.3881 7.29136H13.7428C15.0166 7.29136 16.0479 6.28388 16.0479 5.04472V2.74664C16.0479 1.50698 15.0168 0.5 13.7428 0.5ZM11.3881 1.54651H13.7428C14.4174 1.54651 14.9667 2.08287 14.9667 2.74664V5.04472C14.9667 5.70805 14.4172 6.24485 13.7428 6.24485H11.3881C10.713 6.24485 10.1634 5.70813 10.1634 5.04472V2.74664C10.1634 2.08279 10.7127 1.54651 11.3881 1.54651ZM2.85573 8.70864H5.20969C6.48445 8.70864 7.51562 9.71562 7.51562 10.956V13.2534C7.51562 14.4932 6.4843 15.5 5.20969 15.5H2.85573C1.58112 15.5 0.549805 14.4932 0.549805 13.2534V10.956C0.549805 9.71562 1.58097 8.70864 2.85573 8.70864ZM5.2097 9.75515H2.85574C2.18032 9.75515 1.63108 10.2915 1.63108 10.956V13.2534C1.63108 13.9172 2.1804 14.4535 2.85574 14.4535H5.2097C5.88504 14.4535 6.43436 13.9172 6.43436 13.2534V10.956C6.43436 10.2915 5.88512 9.75515 5.2097 9.75515ZM13.7428 8.70864H11.3881C10.1133 8.70864 9.08213 9.71562 9.08213 10.956V13.2534C9.08213 14.4932 10.1134 15.5 11.3881 15.5H13.7428C15.0168 15.5 16.0479 14.493 16.0479 13.2534V10.956C16.0479 9.71576 15.0169 8.70864 13.7428 8.70864ZM11.3881 9.75515H13.7428C14.4175 9.75515 14.9667 10.2916 14.9667 10.956V13.2534C14.9667 13.9171 14.4174 14.4535 13.7428 14.4535H11.3881C10.7127 14.4535 10.1634 13.9172 10.1634 13.2534V10.956C10.1634 10.2915 10.7126 9.75515 11.3881 9.75515Z" fill="#A6ABB2"/>
</svg>
