<svg width="16" height="16" viewBox="0 0 16 16" fill="none" xmlns="http://www.w3.org/2000/svg">
<path fill-rule="evenodd" clip-rule="evenodd" d="M4.81993 3.66032C4.81993 2.84511 4.14847 2.18144 3.32172 2.18144C2.49585 2.18144 1.82351 2.84511 1.82351 3.66032C1.82351 4.47554 2.49585 5.13921 3.32172 5.13921C4.14847 5.13921 4.81993 4.47554 4.81993 3.66032ZM6.14343 3.66032C6.14343 5.19582 4.87816 6.44564 3.32172 6.44564C1.76615 6.44564 0.5 5.19582 0.5 3.66032C0.5 2.12482 1.76615 0.875 3.32172 0.875C4.87816 0.875 6.14343 2.12482 6.14343 3.66032ZM15.5 3.6605C15.5 3.29992 15.2035 3.00728 14.8382 3.00728H9.41187C9.04658 3.00728 8.75011 3.29992 8.75011 3.6605C8.75011 4.02107 9.04658 4.31371 9.41187 4.31371H14.8382C15.2035 4.31371 15.5 4.02107 15.5 3.6605ZM11.1798 12.3397C11.1798 13.1549 11.8513 13.8186 12.678 13.8186C13.5048 13.8186 14.1762 13.1549 14.1762 12.3397C14.1762 11.5236 13.5048 10.8608 12.678 10.8608C11.8513 10.8608 11.1798 11.5236 11.1798 12.3397ZM9.8563 12.3397C9.8563 10.8033 11.1216 9.55435 12.678 9.55435C14.2345 9.55435 15.4997 10.8033 15.4997 12.3397C15.4997 13.8752 14.2345 15.125 12.678 15.125C11.1216 15.125 9.8563 13.8752 9.8563 12.3397ZM1.16238 11.6862H6.58787C6.95316 11.6862 7.24962 11.9788 7.24962 12.3394C7.24962 12.7 6.95316 12.9926 6.58787 12.9926H1.16238C0.797091 12.9926 0.500625 12.7 0.500625 12.3394C0.500625 11.9788 0.797091 11.6862 1.16238 11.6862Z" fill="#A6ABB2"/>
</svg>
