<svg width="18" height="22" viewBox="0 0 18 22" fill="none" xmlns="http://www.w3.org/2000/svg">
<path fill-rule="evenodd" clip-rule="evenodd" d="M9.0381 0.454529H8.96288C5.40997 0.454529 2.15237 3.03243 1.83633 6.44536C1.81525 6.68951 1.80088 6.93899 1.7916 7.20774L1.77862 7.83608L1.77605 8.39943L1.79191 8.33521C1.64529 9.05018 1.30736 9.71337 0.813086 10.2552L0.742251 10.3464C0.319034 10.9893 0.075862 11.7334 0.0382221 12.5018L0.0373302 12.7531C0.0157235 13.7637 0.362041 14.7638 1.01355 15.5581C1.89706 16.4909 3.04074 17.0474 4.26823 17.1655C7.40765 17.5064 10.5839 17.5064 13.7321 17.1646C14.9512 17.0524 16.0983 16.4942 16.9448 15.5959C17.5839 14.8313 17.9327 13.9137 17.9626 12.9636L17.9637 12.5383C17.9287 11.7361 17.684 10.9912 17.2557 10.3511L17.1906 10.2676L17.0317 10.0806C16.6745 9.63461 16.4138 9.12081 16.2654 8.57124L16.2184 8.37392L16.2087 8.16698C16.2058 8.0739 16.2043 7.97069 16.2038 7.84179L16.2037 7.13198C16.2013 6.86045 16.1932 6.66737 16.1745 6.45C15.8477 3.03063 12.5891 0.454529 9.0381 0.454529ZM8.96288 1.92599H9.0381C11.8827 1.92599 14.4777 3.9775 14.727 6.58488C14.7417 6.75605 14.7483 6.91936 14.7503 7.16196L14.7531 8.11595C14.7563 8.26852 14.7623 8.39539 14.7725 8.53816L14.7861 8.63588L14.8545 8.92671C15.0573 9.69604 15.4215 10.4138 15.9228 11.0325L16.0682 11.203L16.0521 11.1763C16.3302 11.5919 16.4886 12.0741 16.5108 12.5714L16.51 12.7438C16.5268 13.4356 16.2974 14.093 15.8634 14.6136C15.2899 15.2202 14.47 15.6191 13.5887 15.7003C10.532 16.0322 7.45963 16.0322 4.41452 15.7015C3.52358 15.6157 2.70313 15.2166 2.09664 14.5781C1.70348 14.0957 1.47656 13.4405 1.4908 12.7689L1.49097 12.5383L1.50939 12.3374C1.55376 12.0013 1.66606 11.6607 1.84012 11.347L1.9284 11.2009C2.57551 10.4731 3.01961 9.58809 3.21521 8.63429L3.23038 8.48475L3.23726 7.51533L3.25419 7.0235C3.26188 6.86835 3.27171 6.72093 3.28404 6.57804C3.52485 3.97762 6.11743 1.92599 8.96288 1.92599ZM1.9284 11.2009C1.91275 11.2185 1.89698 11.236 1.88109 11.2535L1.93305 11.1932L1.9284 11.2009ZM11.7502 19.1101C11.4375 18.8554 10.9799 18.9056 10.7283 19.2221C10.6193 19.3594 10.493 19.4825 10.3525 19.5885C9.87607 19.9622 9.28148 20.1286 8.69039 20.0581C8.10016 19.9878 7.56364 19.6874 7.19959 19.2249C6.94946 18.9071 6.49218 18.8547 6.17823 19.1079C5.86428 19.3611 5.81254 19.824 6.06267 20.1418C6.66631 20.9087 7.55083 21.404 8.52051 21.5195C9.48933 21.6349 10.4649 21.3619 11.2322 20.7598C11.46 20.5881 11.6749 20.3786 11.8609 20.1445C12.1125 19.8279 12.063 19.3648 11.7502 19.1101Z" fill="#A6ABB2"/>
</svg>
