<svg width="18" height="14" viewBox="0 0 18 14" fill="none" xmlns="http://www.w3.org/2000/svg">
<path fill-rule="evenodd" clip-rule="evenodd" d="M8.92027 0.578125C7.01068 0.578125 5.47683 2.11765 5.47683 4.03431C5.47683 5.95153 7.01055 7.49119 8.92027 7.49119C10.83 7.49119 12.3637 5.95153 12.3637 4.03431C12.3637 2.11765 10.8299 0.578125 8.92027 0.578125ZM8.92027 1.70312C10.2108 1.70312 11.2429 2.73897 11.2429 4.03431C11.2429 5.33026 10.2109 6.36619 8.92027 6.36619C7.62962 6.36619 6.59768 5.33026 6.59768 4.03431C6.59768 2.73897 7.62971 1.70312 8.92027 1.70312ZM4.70007 1.28453C5.00958 1.28453 5.26049 1.53637 5.26049 1.84703C5.26049 2.15769 5.00958 2.40953 4.70007 2.40953C3.81208 2.40953 3.0919 3.13207 3.0919 4.02297C3.0919 4.91387 3.81208 5.63641 4.70007 5.63641C5.00958 5.63641 5.26049 5.88825 5.26049 6.19891C5.26049 6.50957 5.00958 6.76141 4.70007 6.76141C3.19317 6.76141 1.97105 5.5353 1.97105 4.02297C1.97105 2.51064 3.19317 1.28453 4.70007 1.28453ZM15.8765 4.02297C15.8765 2.51064 14.6544 1.28453 13.1474 1.28453C12.8379 1.28453 12.587 1.53637 12.587 1.84703C12.587 2.15769 12.8379 2.40953 13.1474 2.40953C14.0354 2.40953 14.7556 3.13207 14.7556 4.02297C14.7556 4.91387 14.0354 5.63641 13.1474 5.63641C12.8379 5.63641 12.587 5.88825 12.587 6.19891C12.587 6.50957 12.8379 6.76141 13.1474 6.76141C14.6544 6.76141 15.8765 5.5353 15.8765 4.02297ZM15.3151 8.16623C14.9563 8.08495 14.5729 8.02939 14.183 8.0024C13.8742 7.98102 13.6066 8.21494 13.5853 8.52486C13.564 8.83479 13.7971 9.10336 14.1059 9.12473C14.4395 9.14783 14.7665 9.19521 15.0844 9.26702C15.5789 9.3644 15.9012 9.52582 15.9812 9.69408C16.0414 9.82111 16.0414 9.97045 15.9806 10.099C15.9017 10.2656 15.582 10.4262 15.0946 10.5268C14.7914 10.5894 14.5962 10.8868 14.6585 11.191C14.7209 11.4953 15.0172 11.6913 15.3204 11.6287C16.126 11.4624 16.7162 11.1659 16.9931 10.5817C17.1984 10.1473 17.1984 9.64352 16.9931 9.21027C16.7143 8.6238 16.1139 8.32319 15.3151 8.16623ZM4.2622 8.52486C4.24091 8.21494 3.97333 7.98102 3.66455 8.0024C3.27465 8.02939 2.89119 8.08495 2.517 8.16948L2.36274 8.20223C1.65464 8.36462 1.11443 8.66305 0.85513 9.21019C0.649003 9.64307 0.649003 10.1477 0.855347 10.5821C1.13102 11.1658 1.72117 11.4624 2.52716 11.6287C2.83033 11.6913 3.12664 11.4953 3.18898 11.191C3.25132 10.8868 3.05609 10.5894 2.75292 10.5268C2.26566 10.4262 1.94631 10.2657 1.86761 10.0991C1.8063 9.97001 1.8063 9.82156 1.86686 9.69438C1.9468 9.52569 2.26883 9.36437 2.74772 9.27027L2.99672 9.21911C3.24493 9.17304 3.49142 9.14205 3.74167 9.12473C4.05045 9.10336 4.2835 8.83479 4.2622 8.52486ZM3.861 10.8884C3.861 9.09896 5.70513 8.46966 8.92027 8.46966L9.14806 8.47072C12.2288 8.49977 13.9795 9.13052 13.9795 10.8754C13.9795 12.5791 12.3061 13.2315 9.37008 13.2898L8.92027 13.2941C5.69776 13.2941 3.861 12.6759 3.861 10.8884ZM12.8587 10.8754C12.8587 10.0424 11.5282 9.59466 8.92027 9.59466C6.31488 9.59466 4.98185 10.0496 4.98185 10.8884C4.98185 11.7214 6.31191 12.1691 8.92027 12.1691C11.5249 12.1691 12.8587 11.7138 12.8587 10.8754Z" fill="#A6ABB2"/>
</svg>
